<mxfile host="app.diagrams.net" modified="2023-08-03T21:00:03.006Z" agent="Mozilla/5.0 (Macintosh; Intel Mac OS X 10_15_7) AppleWebKit/537.36 (KHTML, like Gecko) Chrome/114.0.0.0 Safari/537.36" etag="RllrPk3WyDIR0xuFtOvg" version="21.6.6" type="github">
  <diagram id="C5RBs43oDa-KdzZeNtuy" name="Page-1">
    <mxGraphModel dx="1272" dy="864" grid="1" gridSize="10" guides="1" tooltips="1" connect="1" arrows="1" fold="1" page="1" pageScale="1" pageWidth="827" pageHeight="1169" math="0" shadow="0">
      <root>
        <mxCell id="WIyWlLk6GJQsqaUBKTNV-0" />
        <mxCell id="WIyWlLk6GJQsqaUBKTNV-1" parent="WIyWlLk6GJQsqaUBKTNV-0" />
        <mxCell id="xACKgGWQE1Jlsn4HB2AZ-22" value="" style="edgeStyle=orthogonalEdgeStyle;rounded=0;orthogonalLoop=1;jettySize=auto;html=1;" edge="1" parent="WIyWlLk6GJQsqaUBKTNV-1" source="xACKgGWQE1Jlsn4HB2AZ-1" target="xACKgGWQE1Jlsn4HB2AZ-8">
          <mxGeometry relative="1" as="geometry" />
        </mxCell>
        <mxCell id="xACKgGWQE1Jlsn4HB2AZ-1" value="грузовик добавлен в список и может быть использован" style="rounded=1;whiteSpace=wrap;html=1;fontSize=12;glass=0;strokeWidth=1;shadow=0;" vertex="1" parent="WIyWlLk6GJQsqaUBKTNV-1">
          <mxGeometry x="325" y="29" width="120" height="60" as="geometry" />
        </mxCell>
        <mxCell id="xACKgGWQE1Jlsn4HB2AZ-17" value="" style="edgeStyle=orthogonalEdgeStyle;rounded=0;orthogonalLoop=1;jettySize=auto;html=1;" edge="1" parent="WIyWlLk6GJQsqaUBKTNV-1" source="xACKgGWQE1Jlsn4HB2AZ-3" target="xACKgGWQE1Jlsn4HB2AZ-15">
          <mxGeometry relative="1" as="geometry" />
        </mxCell>
        <mxCell id="xACKgGWQE1Jlsn4HB2AZ-3" value="Отправляет запрос на создание грузовика" style="rounded=1;whiteSpace=wrap;html=1;fontSize=12;glass=0;strokeWidth=1;shadow=0;" vertex="1" parent="WIyWlLk6GJQsqaUBKTNV-1">
          <mxGeometry x="30" y="29" width="120" height="60" as="geometry" />
        </mxCell>
        <mxCell id="xACKgGWQE1Jlsn4HB2AZ-18" value="" style="edgeStyle=orthogonalEdgeStyle;rounded=0;orthogonalLoop=1;jettySize=auto;html=1;" edge="1" parent="WIyWlLk6GJQsqaUBKTNV-1" source="xACKgGWQE1Jlsn4HB2AZ-4" target="xACKgGWQE1Jlsn4HB2AZ-3">
          <mxGeometry relative="1" as="geometry" />
        </mxCell>
        <mxCell id="xACKgGWQE1Jlsn4HB2AZ-4" value="Пользователь заходит в раздел управления транспортом" style="rounded=1;whiteSpace=wrap;html=1;fontSize=12;glass=0;strokeWidth=1;shadow=0;fillColor=#dae8fc;strokeColor=#6c8ebf;" vertex="1" parent="WIyWlLk6GJQsqaUBKTNV-1">
          <mxGeometry x="30" y="174" width="120" height="60" as="geometry" />
        </mxCell>
        <mxCell id="xACKgGWQE1Jlsn4HB2AZ-5" value="текущая остановка грузовика становится S2" style="rounded=1;whiteSpace=wrap;html=1;fontSize=12;glass=0;strokeWidth=1;shadow=0;fillColor=#d5e8d4;strokeColor=#82b366;" vertex="1" parent="WIyWlLk6GJQsqaUBKTNV-1">
          <mxGeometry x="156.5" y="525" width="120" height="50" as="geometry" />
        </mxCell>
        <mxCell id="xACKgGWQE1Jlsn4HB2AZ-14" value="" style="edgeStyle=orthogonalEdgeStyle;rounded=0;orthogonalLoop=1;jettySize=auto;html=1;" edge="1" parent="WIyWlLk6GJQsqaUBKTNV-1" source="xACKgGWQE1Jlsn4HB2AZ-6" target="xACKgGWQE1Jlsn4HB2AZ-5">
          <mxGeometry relative="1" as="geometry" />
        </mxCell>
        <mxCell id="xACKgGWQE1Jlsn4HB2AZ-6" value="после завершения движения маршрут помечается завершенным" style="rounded=1;whiteSpace=wrap;html=1;fontSize=12;glass=0;strokeWidth=1;shadow=0;fillColor=#d5e8d4;strokeColor=#82b366;" vertex="1" parent="WIyWlLk6GJQsqaUBKTNV-1">
          <mxGeometry x="330" y="515" width="120" height="70" as="geometry" />
        </mxCell>
        <mxCell id="xACKgGWQE1Jlsn4HB2AZ-11" value="" style="edgeStyle=orthogonalEdgeStyle;rounded=0;orthogonalLoop=1;jettySize=auto;html=1;entryX=0.5;entryY=0;entryDx=0;entryDy=0;" edge="1" parent="WIyWlLk6GJQsqaUBKTNV-1" source="xACKgGWQE1Jlsn4HB2AZ-8" target="xACKgGWQE1Jlsn4HB2AZ-28">
          <mxGeometry relative="1" as="geometry">
            <mxPoint x="395" y="284" as="targetPoint" />
          </mxGeometry>
        </mxCell>
        <mxCell id="xACKgGWQE1Jlsn4HB2AZ-8" value="в storage добавляется &lt;br&gt;грузовик" style="rounded=1;whiteSpace=wrap;html=1;fontSize=12;glass=0;strokeWidth=1;shadow=0;" vertex="1" parent="WIyWlLk6GJQsqaUBKTNV-1">
          <mxGeometry x="325" y="124" width="120" height="50" as="geometry" />
        </mxCell>
        <mxCell id="xACKgGWQE1Jlsn4HB2AZ-16" value="" style="edgeStyle=orthogonalEdgeStyle;rounded=0;orthogonalLoop=1;jettySize=auto;html=1;entryX=0.5;entryY=0;entryDx=0;entryDy=0;" edge="1" parent="WIyWlLk6GJQsqaUBKTNV-1" source="xACKgGWQE1Jlsn4HB2AZ-15" target="xACKgGWQE1Jlsn4HB2AZ-34">
          <mxGeometry relative="1" as="geometry">
            <mxPoint x="260" y="304" as="targetPoint" />
          </mxGeometry>
        </mxCell>
        <mxCell id="xACKgGWQE1Jlsn4HB2AZ-21" value="нет" style="edgeLabel;html=1;align=center;verticalAlign=middle;resizable=0;points=[];" vertex="1" connectable="0" parent="xACKgGWQE1Jlsn4HB2AZ-16">
          <mxGeometry x="-0.2779" y="-1" relative="1" as="geometry">
            <mxPoint as="offset" />
          </mxGeometry>
        </mxCell>
        <mxCell id="xACKgGWQE1Jlsn4HB2AZ-19" value="" style="edgeStyle=orthogonalEdgeStyle;rounded=0;orthogonalLoop=1;jettySize=auto;html=1;" edge="1" parent="WIyWlLk6GJQsqaUBKTNV-1" source="xACKgGWQE1Jlsn4HB2AZ-15" target="xACKgGWQE1Jlsn4HB2AZ-1">
          <mxGeometry relative="1" as="geometry" />
        </mxCell>
        <mxCell id="xACKgGWQE1Jlsn4HB2AZ-20" value="да" style="edgeLabel;html=1;align=center;verticalAlign=middle;resizable=0;points=[];" vertex="1" connectable="0" parent="xACKgGWQE1Jlsn4HB2AZ-19">
          <mxGeometry x="-0.2636" y="1" relative="1" as="geometry">
            <mxPoint as="offset" />
          </mxGeometry>
        </mxCell>
        <mxCell id="xACKgGWQE1Jlsn4HB2AZ-15" value="данные валидные?" style="rhombus;whiteSpace=wrap;html=1;" vertex="1" parent="WIyWlLk6GJQsqaUBKTNV-1">
          <mxGeometry x="176.5" y="19" width="110" height="80" as="geometry" />
        </mxCell>
        <mxCell id="xACKgGWQE1Jlsn4HB2AZ-46" value="" style="edgeStyle=orthogonalEdgeStyle;rounded=0;orthogonalLoop=1;jettySize=auto;html=1;" edge="1" parent="WIyWlLk6GJQsqaUBKTNV-1" source="xACKgGWQE1Jlsn4HB2AZ-24" target="xACKgGWQE1Jlsn4HB2AZ-6">
          <mxGeometry relative="1" as="geometry" />
        </mxCell>
        <mxCell id="xACKgGWQE1Jlsn4HB2AZ-24" value="маршрут регистрируется в системе" style="rounded=1;whiteSpace=wrap;html=1;fontSize=12;glass=0;strokeWidth=1;shadow=0;" vertex="1" parent="WIyWlLk6GJQsqaUBKTNV-1">
          <mxGeometry x="490" y="525" width="120" height="50" as="geometry" />
        </mxCell>
        <mxCell id="xACKgGWQE1Jlsn4HB2AZ-31" value="" style="edgeStyle=orthogonalEdgeStyle;rounded=0;orthogonalLoop=1;jettySize=auto;html=1;" edge="1" parent="WIyWlLk6GJQsqaUBKTNV-1" source="xACKgGWQE1Jlsn4HB2AZ-26" target="xACKgGWQE1Jlsn4HB2AZ-42">
          <mxGeometry relative="1" as="geometry">
            <mxPoint x="570" y="524" as="targetPoint" />
          </mxGeometry>
        </mxCell>
        <mxCell id="xACKgGWQE1Jlsn4HB2AZ-26" value="Указывает загрузку грузовика" style="rounded=1;whiteSpace=wrap;html=1;fontSize=12;glass=0;strokeWidth=1;shadow=0;" vertex="1" parent="WIyWlLk6GJQsqaUBKTNV-1">
          <mxGeometry x="470" y="314" width="120" height="40" as="geometry" />
        </mxCell>
        <mxCell id="xACKgGWQE1Jlsn4HB2AZ-39" value="" style="edgeStyle=orthogonalEdgeStyle;rounded=0;orthogonalLoop=1;jettySize=auto;html=1;" edge="1" parent="WIyWlLk6GJQsqaUBKTNV-1" source="xACKgGWQE1Jlsn4HB2AZ-27" target="xACKgGWQE1Jlsn4HB2AZ-26">
          <mxGeometry relative="1" as="geometry" />
        </mxCell>
        <mxCell id="xACKgGWQE1Jlsn4HB2AZ-27" value="Выбирает пункт назначения S2" style="rounded=1;whiteSpace=wrap;html=1;fontSize=12;glass=0;strokeWidth=1;shadow=0;" vertex="1" parent="WIyWlLk6GJQsqaUBKTNV-1">
          <mxGeometry x="470" y="229" width="120" height="40" as="geometry" />
        </mxCell>
        <mxCell id="xACKgGWQE1Jlsn4HB2AZ-38" value="" style="edgeStyle=orthogonalEdgeStyle;rounded=0;orthogonalLoop=1;jettySize=auto;html=1;" edge="1" parent="WIyWlLk6GJQsqaUBKTNV-1" source="xACKgGWQE1Jlsn4HB2AZ-28" target="xACKgGWQE1Jlsn4HB2AZ-27">
          <mxGeometry relative="1" as="geometry" />
        </mxCell>
        <mxCell id="xACKgGWQE1Jlsn4HB2AZ-28" value="Пользователь заходит на страницу S1" style="rounded=1;whiteSpace=wrap;html=1;fontSize=12;glass=0;strokeWidth=1;shadow=0;" vertex="1" parent="WIyWlLk6GJQsqaUBKTNV-1">
          <mxGeometry x="325" y="224" width="120" height="50" as="geometry" />
        </mxCell>
        <mxCell id="xACKgGWQE1Jlsn4HB2AZ-32" value="" style="edgeStyle=orthogonalEdgeStyle;rounded=0;orthogonalLoop=1;jettySize=auto;html=1;" edge="1" parent="WIyWlLk6GJQsqaUBKTNV-1" source="xACKgGWQE1Jlsn4HB2AZ-42" target="xACKgGWQE1Jlsn4HB2AZ-34">
          <mxGeometry relative="1" as="geometry">
            <mxPoint x="480" y="559" as="sourcePoint" />
            <mxPoint x="800" y="629" as="targetPoint" />
          </mxGeometry>
        </mxCell>
        <mxCell id="xACKgGWQE1Jlsn4HB2AZ-35" value="нет" style="edgeLabel;html=1;align=center;verticalAlign=middle;resizable=0;points=[];" vertex="1" connectable="0" parent="xACKgGWQE1Jlsn4HB2AZ-32">
          <mxGeometry x="-0.2917" relative="1" as="geometry">
            <mxPoint as="offset" />
          </mxGeometry>
        </mxCell>
        <mxCell id="xACKgGWQE1Jlsn4HB2AZ-33" value="" style="edgeStyle=orthogonalEdgeStyle;rounded=0;orthogonalLoop=1;jettySize=auto;html=1;" edge="1" parent="WIyWlLk6GJQsqaUBKTNV-1" source="xACKgGWQE1Jlsn4HB2AZ-42" target="xACKgGWQE1Jlsn4HB2AZ-24">
          <mxGeometry relative="1" as="geometry">
            <mxPoint x="700" y="559" as="sourcePoint" />
          </mxGeometry>
        </mxCell>
        <mxCell id="xACKgGWQE1Jlsn4HB2AZ-36" value="да" style="edgeLabel;html=1;align=center;verticalAlign=middle;resizable=0;points=[];" vertex="1" connectable="0" parent="xACKgGWQE1Jlsn4HB2AZ-33">
          <mxGeometry x="-0.7284" y="3" relative="1" as="geometry">
            <mxPoint x="-3" y="12" as="offset" />
          </mxGeometry>
        </mxCell>
        <mxCell id="xACKgGWQE1Jlsn4HB2AZ-34" value="выводится сообщение с ошибками" style="rounded=1;whiteSpace=wrap;html=1;fontSize=12;glass=0;strokeWidth=1;shadow=0;fillColor=#f8cecc;strokeColor=#b85450;" vertex="1" parent="WIyWlLk6GJQsqaUBKTNV-1">
          <mxGeometry x="171.5" y="424" width="120" height="40" as="geometry" />
        </mxCell>
        <mxCell id="xACKgGWQE1Jlsn4HB2AZ-42" value="данные валидные?" style="rhombus;whiteSpace=wrap;html=1;" vertex="1" parent="WIyWlLk6GJQsqaUBKTNV-1">
          <mxGeometry x="475" y="404" width="110" height="80" as="geometry" />
        </mxCell>
        <mxCell id="xACKgGWQE1Jlsn4HB2AZ-44" value="Загрузка&lt;br style=&quot;border-color: var(--border-color);&quot;&gt;1) &amp;lt;= вместимости грузовика&lt;br style=&quot;border-color: var(--border-color);&quot;&gt;2)&amp;nbsp; И &amp;lt;= свободного места на S2&lt;br style=&quot;border-color: var(--border-color);&quot;&gt;3) И &amp;lt;= занятого места на S1&lt;br&gt;Грузовик &lt;br&gt;1) находится в S1&lt;br&gt;2) годен к эксплуатации&lt;br&gt;" style="shape=hexagon;perimeter=hexagonPerimeter2;whiteSpace=wrap;html=1;fixedSize=1;" vertex="1" parent="WIyWlLk6GJQsqaUBKTNV-1">
          <mxGeometry x="600" y="389" width="220" height="110" as="geometry" />
        </mxCell>
        <mxCell id="xACKgGWQE1Jlsn4HB2AZ-45" value="" style="endArrow=none;dashed=1;html=1;dashPattern=1 3;strokeWidth=2;rounded=0;entryX=1;entryY=0.5;entryDx=0;entryDy=0;" edge="1" parent="WIyWlLk6GJQsqaUBKTNV-1" target="xACKgGWQE1Jlsn4HB2AZ-42">
          <mxGeometry width="50" height="50" relative="1" as="geometry">
            <mxPoint x="590" y="444" as="sourcePoint" />
            <mxPoint x="670" y="634" as="targetPoint" />
          </mxGeometry>
        </mxCell>
        <mxCell id="xACKgGWQE1Jlsn4HB2AZ-48" style="edgeStyle=orthogonalEdgeStyle;rounded=0;orthogonalLoop=1;jettySize=auto;html=1;exitX=0.5;exitY=1;exitDx=0;exitDy=0;" edge="1" parent="WIyWlLk6GJQsqaUBKTNV-1" source="xACKgGWQE1Jlsn4HB2AZ-8" target="xACKgGWQE1Jlsn4HB2AZ-8">
          <mxGeometry relative="1" as="geometry" />
        </mxCell>
      </root>
    </mxGraphModel>
  </diagram>
</mxfile>
